<svg width="205" height="328" viewBox="0 0 205 328" fill="none" xmlns="http://www.w3.org/2000/svg">
<path d="M-26.5826 -17.6316C-28.0389 -17.8376 -25.9962 -18.9554 -25.6091 -19.1982C-20.1924 -22.5953 -14.154 -25.15 -8.32825 -27.7543C2.68522 -32.6776 13.674 -36.8502 25.5032 -39.3231C34.3733 -41.1774 40.2784 -43.066 49.4164 -41.4923C71.7357 -37.6485 77.8334 -11.6796 80.6922 7.19318C82.5823 19.6706 84.5897 32.1413 88.4199 44.1893C90.842 51.8078 90.7253 59.8351 93.2877 67.4474C96.5147 77.034 99.1237 89.9042 88.3591 95.767C79.6489 100.511 71.1503 106.749 61.0384 108.179C53.724 109.214 46.7548 113.08 39.3765 113.602C30.7833 114.21 40.9131 120.973 44.0009 123.303C48.4797 126.682 52.6715 130.262 56.6573 134.209C67.4806 144.927 37.0899 141.852 32.0748 140.717C22.3445 138.514 11.7211 139.68 2.44183 135.896C-2.27574 133.973 -7.29703 133.125 -12.3442 133.125" stroke="#4C4F62" stroke-width="5" stroke-linecap="round"/>
<path d="M241.756 -48C232.103 -43.448 221.603 -40.9544 211.454 -37.7568C196.963 -33.191 182.832 -27.7979 168.131 -23.8983C155.419 -20.5267 136.636 -18.0093 126.997 -8.11168C121.101 -2.05639 120.089 7.98236 120.182 15.99C120.351 30.5085 127.088 43.8058 130.04 57.8065C133.165 72.629 135.449 90.2117 142.331 103.841C148.144 115.354 154.198 109.424 164.966 108.239C169.438 107.747 173.861 106.688 178.231 106.07C185.494 105.043 177.801 113.819 176.588 116.313C172.357 125.016 166.156 132.714 160.768 140.716C159.805 142.147 156.129 151.27 158.03 148.851C162.305 143.407 170.49 141.617 176.102 138.005C183.181 133.448 191.355 126.98 196.912 120.652C204.449 112.068 216.282 104.523 226.423 99.5024" stroke="#4C4F62" stroke-width="5" stroke-linecap="round"/>
<path d="M-7.96317 197.114C22.4751 182.044 53.6971 171.786 86.1685 162.408C92.6087 160.548 99.0866 159.879 105.701 158.913C109.608 158.342 114.955 156.599 118.844 157.226C127.09 158.555 129.648 162.555 133.326 169.578C140.658 183.581 143.839 198.686 149.998 213.142C153.518 221.405 158.52 229.603 160.707 238.268C161.757 242.427 165.088 246.243 165.088 250.499C165.088 264.98 151.944 268.371 140.384 272.492C135.881 274.098 131.353 275.298 126.754 276.529C126.138 276.694 119.782 279.262 119.817 279.301C122.35 282.088 127.226 282.908 130.04 285.567C134.23 289.528 137.239 293.672 140.992 297.92C143.21 300.429 151.207 308.826 145.374 308.826C133.215 308.826 121.534 304.574 110.873 299.125C107.31 297.304 94.2988 290.382 90.6104 292.316C80.5749 297.577 70.1631 303.52 59.3955 307.681C42.9562 314.033 24.7581 315.733 7.85728 320.515C-5.7836 324.374 -22.3441 328.48 -35.3447 320.756" stroke="#4C4F62" stroke-width="5" stroke-linecap="round"/>
<path d="M112.623 229.5C112.623 238.866 104.949 246.5 95.4311 246.5C85.913 246.5 78.239 238.866 78.239 229.5C78.239 220.134 85.913 212.5 95.4311 212.5C104.949 212.5 112.623 220.134 112.623 229.5Z" fill="#3B3C43" stroke="#4C4F62" stroke-width="5"/>
<path d="M51.0219 249.5C51.0219 258.866 43.3479 266.5 33.8298 266.5C24.3117 266.5 16.6377 258.866 16.6377 249.5C16.6377 240.134 24.3117 232.5 33.8298 232.5C43.3479 232.5 51.0219 240.134 51.0219 249.5Z" fill="#3B3C43" stroke="#4C4F62" stroke-width="5"/>
<path d="M40.9238 40.5C40.9238 49.8658 33.2498 57.5 23.7317 57.5C14.2136 57.5 6.53955 49.8658 6.53955 40.5C6.53955 31.1342 14.2136 23.5 23.7317 23.5C33.2498 23.5 40.9238 31.1342 40.9238 40.5Z" fill="#3B3C43" stroke="#4C4F62" stroke-width="5"/>
<path d="M201.49 40.5C201.49 49.8658 193.816 57.5 184.298 57.5C174.78 57.5 167.106 49.8658 167.106 40.5C167.106 31.1342 174.78 23.5 184.298 23.5C193.816 23.5 201.49 31.1342 201.49 40.5Z" fill="#3B3C43" stroke="#4C4F62" stroke-width="5"/>
</svg>
